<svg width="64" height="40" viewBox="0 0 64 40" fill="none" xmlns="http://www.w3.org/2000/svg">
<path d="M0 40C3.2378 31.528 6.98908 30.7826 14.1065 30.7826C21.224 30.7826 29.5823 30.5093 41.15 30.7826C53.602 31.0808 63.2155 21.2919 64 1.01717e-06C60.7622 8.47205 56.5545 10.0124 49.437 10.0124C42.3196 10.0124 38.0406 10.2857 26.4729 10.0124C14.0209 9.7143 4.30755 19.2547 0 40Z" fill="#DF2224"/>
<path d="M27.528 15.636C28.44 15.636 29.228 15.808 29.892 16.152C30.564 16.488 31.076 16.972 31.428 17.604C31.788 18.236 31.968 18.98 31.968 19.836C31.968 20.692 31.788 21.436 31.428 22.068C31.076 22.692 30.564 23.172 29.892 23.508C29.228 23.836 28.44 24 27.528 24H24.924V15.636H27.528ZM27.528 23.1C28.608 23.1 29.432 22.816 30 22.248C30.568 21.672 30.852 20.868 30.852 19.836C30.852 18.796 30.564 17.984 29.988 17.4C29.42 16.816 28.6 16.524 27.528 16.524H26.016V23.1H27.528ZM36.0124 15.636C36.9244 15.636 37.7124 15.808 38.3764 16.152C39.0484 16.488 39.5604 16.972 39.9124 17.604C40.2724 18.236 40.4524 18.98 40.4524 19.836C40.4524 20.692 40.2724 21.436 39.9124 22.068C39.5604 22.692 39.0484 23.172 38.3764 23.508C37.7124 23.836 36.9244 24 36.0124 24H33.4084V15.636H36.0124ZM36.0124 23.1C37.0924 23.1 37.9164 22.816 38.4844 22.248C39.0524 21.672 39.3364 20.868 39.3364 19.836C39.3364 18.796 39.0484 17.984 38.4724 17.4C37.9044 16.816 37.0844 16.524 36.0124 16.524H34.5004V23.1H36.0124Z" fill="white"/>
</svg>
