<svg width="132" height="54" viewBox="0 0 132 54" fill="none" xmlns="http://www.w3.org/2000/svg">
<path d="M0 54C6.67796 42.5627 14.415 41.5565 29.0947 41.5565C43.7745 41.5565 61.0136 41.1876 84.8718 41.5565C110.554 41.959 130.382 28.7441 132 -3.49618e-06C125.322 11.4373 116.644 13.5168 101.964 13.5168C87.2841 13.5168 78.4587 13.8857 54.6004 13.5168C28.9182 13.1143 8.88433 25.9938 0 54Z" fill="#DF2224"/>
<path d="M54.704 20.848C55.92 20.848 56.9707 21.0773 57.856 21.536C58.752 21.984 59.4347 22.6293 59.904 23.472C60.384 24.3147 60.624 25.3067 60.624 26.448C60.624 27.5893 60.384 28.5813 59.904 29.424C59.4347 30.256 58.752 30.896 57.856 31.344C56.9707 31.7813 55.92 32 54.704 32H51.232V20.848H54.704ZM54.704 30.8C56.144 30.8 57.2427 30.4213 58 29.664C58.7573 28.896 59.136 27.824 59.136 26.448C59.136 25.0613 58.752 23.9787 57.984 23.2C57.2267 22.4213 56.1333 22.032 54.704 22.032H52.688V30.8H54.704ZM62.0005 27.584C62.0005 26.688 62.1818 25.904 62.5445 25.232C62.9072 24.5493 63.4032 24.0213 64.0325 23.648C64.6725 23.2747 65.3818 23.088 66.1605 23.088C66.9285 23.088 67.5952 23.2533 68.1605 23.584C68.7258 23.9147 69.1472 24.3307 69.4245 24.832V23.232H70.8965V32H69.4245V30.368C69.1365 30.88 68.7045 31.3067 68.1285 31.648C67.5632 31.9787 66.9018 32.144 66.1445 32.144C65.3658 32.144 64.6618 31.952 64.0325 31.568C63.4032 31.184 62.9072 30.6453 62.5445 29.952C62.1818 29.2587 62.0005 28.4693 62.0005 27.584ZM69.4245 27.6C69.4245 26.9387 69.2912 26.3627 69.0245 25.872C68.7578 25.3813 68.3952 25.008 67.9365 24.752C67.4885 24.4853 66.9925 24.352 66.4485 24.352C65.9045 24.352 65.4085 24.48 64.9605 24.736C64.5125 24.992 64.1552 25.3653 63.8885 25.856C63.6218 26.3467 63.4885 26.9227 63.4885 27.584C63.4885 28.256 63.6218 28.8427 63.8885 29.344C64.1552 29.8347 64.5125 30.2133 64.9605 30.48C65.4085 30.736 65.9045 30.864 66.4485 30.864C66.9925 30.864 67.4885 30.736 67.9365 30.48C68.3952 30.2133 68.7578 29.8347 69.0245 29.344C69.2912 28.8427 69.4245 28.2613 69.4245 27.6ZM80.909 23.232L75.629 36.128H74.125L75.853 31.904L72.317 23.232H73.933L76.685 30.336L79.405 23.232H80.909ZM85.4766 32.144C84.8046 32.144 84.202 32.032 83.6686 31.808C83.1353 31.5733 82.714 31.2533 82.4046 30.848C82.0953 30.432 81.9246 29.9573 81.8926 29.424H83.3966C83.4393 29.8613 83.642 30.2187 84.0046 30.496C84.378 30.7733 84.8633 30.912 85.4606 30.912C86.0153 30.912 86.4526 30.7893 86.7726 30.544C87.0926 30.2987 87.2526 29.9893 87.2526 29.616C87.2526 29.232 87.082 28.9493 86.7406 28.768C86.3993 28.576 85.8713 28.3893 85.1566 28.208C84.506 28.0373 83.9726 27.8667 83.5566 27.696C83.1513 27.5147 82.7993 27.2533 82.5006 26.912C82.2126 26.56 82.0686 26.1013 82.0686 25.536C82.0686 25.088 82.202 24.6773 82.4686 24.304C82.7353 23.9307 83.114 23.6373 83.6046 23.424C84.0953 23.2 84.6553 23.088 85.2846 23.088C86.2553 23.088 87.0393 23.3333 87.6366 23.824C88.234 24.3147 88.554 24.9867 88.5966 25.84H87.1406C87.1086 25.3813 86.922 25.0133 86.5806 24.736C86.25 24.4587 85.802 24.32 85.2366 24.32C84.714 24.32 84.298 24.432 83.9886 24.656C83.6793 24.88 83.5246 25.1733 83.5246 25.536C83.5246 25.824 83.6153 26.064 83.7966 26.256C83.9886 26.4373 84.2233 26.5867 84.5006 26.704C84.7886 26.8107 85.1833 26.9333 85.6846 27.072C86.314 27.2427 86.826 27.4133 87.2206 27.584C87.6153 27.744 87.9513 27.9893 88.2286 28.32C88.5166 28.6507 88.666 29.0827 88.6766 29.616C88.6766 30.096 88.5433 30.528 88.2766 30.912C88.01 31.296 87.6313 31.6 87.1406 31.824C86.6606 32.0373 86.106 32.144 85.4766 32.144Z" fill="white"/>
</svg>
