<svg width="132" height="54" viewBox="0 0 132 54" fill="none" xmlns="http://www.w3.org/2000/svg">
<path d="M0 54C6.67796 42.5627 14.415 41.5565 29.0947 41.5565C43.7745 41.5565 61.0136 41.1876 84.8718 41.5565C110.554 41.959 130.382 28.7441 132 -3.49618e-06C125.322 11.4373 116.644 13.5168 101.964 13.5168C87.2841 13.5168 78.4587 13.8857 54.6004 13.5168C28.9182 13.1143 8.88433 25.9938 0 54Z" fill="#DF2224"/>
<path d="M50.544 20.928V32H49.088V23.744L45.408 32H44.384L40.688 23.728V32H39.232V20.928H40.8L44.896 30.08L48.992 20.928H50.544ZM53.7653 21.808C53.4879 21.808 53.2533 21.712 53.0613 21.52C52.8693 21.328 52.7733 21.0933 52.7733 20.816C52.7733 20.5387 52.8693 20.304 53.0613 20.112C53.2533 19.92 53.4879 19.824 53.7653 19.824C54.0319 19.824 54.2559 19.92 54.4373 20.112C54.6293 20.304 54.7253 20.5387 54.7253 20.816C54.7253 21.0933 54.6293 21.328 54.4373 21.52C54.2559 21.712 54.0319 21.808 53.7653 21.808ZM54.4693 23.232V32H53.0133V23.232H54.4693ZM61.2228 23.072C62.2894 23.072 63.1534 23.3973 63.8148 24.048C64.4761 24.688 64.8068 25.616 64.8068 26.832V32H63.3668V27.04C63.3668 26.1653 63.1481 25.4987 62.7108 25.04C62.2734 24.5707 61.6761 24.336 60.9188 24.336C60.1508 24.336 59.5374 24.576 59.0788 25.056C58.6308 25.536 58.4068 26.2347 58.4068 27.152V32H56.9508V23.232H58.4068V24.48C58.6948 24.032 59.0841 23.6853 59.5748 23.44C60.0761 23.1947 60.6254 23.072 61.2228 23.072ZM74.9611 23.232V32H73.5051V30.704C73.2278 31.152 72.8385 31.504 72.3371 31.76C71.8465 32.0053 71.3025 32.128 70.7051 32.128C70.0225 32.128 69.4091 31.9893 68.8651 31.712C68.3211 31.424 67.8891 30.9973 67.5691 30.432C67.2598 29.8667 67.1051 29.1787 67.1051 28.368V23.232H68.5451V28.176C68.5451 29.04 68.7638 29.7067 69.2011 30.176C69.6385 30.6347 70.2358 30.864 70.9931 30.864C71.7718 30.864 72.3851 30.624 72.8331 30.144C73.2811 29.664 73.5051 28.9653 73.5051 28.048V23.232H74.9611ZM79.1955 24.432V29.6C79.1955 30.0267 79.2862 30.3307 79.4675 30.512C79.6488 30.6827 79.9635 30.768 80.4115 30.768H81.4835V32H80.1715C79.3608 32 78.7528 31.8133 78.3475 31.44C77.9422 31.0667 77.7395 30.4533 77.7395 29.6V24.432H76.6035V23.232H77.7395V21.024H79.1955V23.232H81.4835V24.432H79.1955ZM91.2476 27.28C91.2476 27.5573 91.2316 27.8507 91.1996 28.16H84.1916C84.245 29.024 84.5383 29.7013 85.0716 30.192C85.6156 30.672 86.2716 30.912 87.0396 30.912C87.669 30.912 88.1916 30.768 88.6076 30.48C89.0343 30.1813 89.333 29.7867 89.5036 29.296H91.0716C90.837 30.1387 90.3676 30.8267 89.6636 31.36C88.9596 31.8827 88.085 32.144 87.0396 32.144C86.2076 32.144 85.461 31.9573 84.7996 31.584C84.149 31.2107 83.637 30.6827 83.2636 30C82.8903 29.3067 82.7036 28.5067 82.7036 27.6C82.7036 26.6933 82.885 25.8987 83.2476 25.216C83.6103 24.5333 84.117 24.0107 84.7676 23.648C85.429 23.2747 86.1863 23.088 87.0396 23.088C87.8716 23.088 88.6076 23.2693 89.2476 23.632C89.8876 23.9947 90.3783 24.496 90.7196 25.136C91.0716 25.7653 91.2476 26.48 91.2476 27.28ZM89.7436 26.976C89.7436 26.4213 89.621 25.9467 89.3756 25.552C89.1303 25.1467 88.7943 24.8427 88.3676 24.64C87.9516 24.4267 87.4876 24.32 86.9756 24.32C86.2396 24.32 85.6103 24.5547 85.0876 25.024C84.5756 25.4933 84.2823 26.144 84.2076 26.976H89.7436ZM96.2735 32.144C95.6015 32.144 94.9988 32.032 94.4655 31.808C93.9322 31.5733 93.5108 31.2533 93.2015 30.848C92.8922 30.432 92.7215 29.9573 92.6895 29.424H94.1935C94.2362 29.8613 94.4388 30.2187 94.8015 30.496C95.1748 30.7733 95.6602 30.912 96.2575 30.912C96.8122 30.912 97.2495 30.7893 97.5695 30.544C97.8895 30.2987 98.0495 29.9893 98.0495 29.616C98.0495 29.232 97.8788 28.9493 97.5375 28.768C97.1962 28.576 96.6682 28.3893 95.9535 28.208C95.3028 28.0373 94.7695 27.8667 94.3535 27.696C93.9482 27.5147 93.5962 27.2533 93.2975 26.912C93.0095 26.56 92.8655 26.1013 92.8655 25.536C92.8655 25.088 92.9988 24.6773 93.2655 24.304C93.5322 23.9307 93.9108 23.6373 94.4015 23.424C94.8922 23.2 95.4522 23.088 96.0815 23.088C97.0522 23.088 97.8362 23.3333 98.4335 23.824C99.0308 24.3147 99.3508 24.9867 99.3935 25.84H97.9375C97.9055 25.3813 97.7188 25.0133 97.3775 24.736C97.0468 24.4587 96.5988 24.32 96.0335 24.32C95.5108 24.32 95.0948 24.432 94.7855 24.656C94.4762 24.88 94.3215 25.1733 94.3215 25.536C94.3215 25.824 94.4122 26.064 94.5935 26.256C94.7855 26.4373 95.0202 26.5867 95.2975 26.704C95.5855 26.8107 95.9802 26.9333 96.4815 27.072C97.1108 27.2427 97.6228 27.4133 98.0175 27.584C98.4122 27.744 98.7482 27.9893 99.0255 28.32C99.3135 28.6507 99.4628 29.0827 99.4735 29.616C99.4735 30.096 99.3402 30.528 99.0735 30.912C98.8068 31.296 98.4282 31.6 97.9375 31.824C97.4575 32.0373 96.9028 32.144 96.2735 32.144Z" fill="white"/>
</svg>
