<svg width="132" height="54" viewBox="0 0 132 54" fill="none" xmlns="http://www.w3.org/2000/svg">
<path d="M0 54C6.67796 42.5627 14.415 41.5565 29.0947 41.5565C43.7745 41.5565 61.0136 41.1876 84.8718 41.5565C110.554 41.959 130.382 28.7441 132 -3.49618e-06C125.322 11.4373 116.644 13.5168 101.964 13.5168C87.2841 13.5168 78.4587 13.8857 54.6004 13.5168C28.9182 13.1143 8.88433 25.9938 0 54Z" fill="#DF2224"/>
<path d="M38.768 32.112C38.032 32.112 37.3707 31.984 36.784 31.728C36.208 31.4613 35.7547 31.0987 35.424 30.64C35.0933 30.1707 34.9227 29.632 34.912 29.024H36.464C36.5173 29.5467 36.7307 29.9893 37.104 30.352C37.488 30.704 38.0427 30.88 38.768 30.88C39.4613 30.88 40.0053 30.7093 40.4 30.368C40.8053 30.016 41.008 29.568 41.008 29.024C41.008 28.5973 40.8907 28.2507 40.656 27.984C40.4213 27.7173 40.128 27.5147 39.776 27.376C39.424 27.2373 38.9493 27.088 38.352 26.928C37.616 26.736 37.024 26.544 36.576 26.352C36.1387 26.16 35.76 25.8613 35.44 25.456C35.1307 25.04 34.976 24.4853 34.976 23.792C34.976 23.184 35.1307 22.6453 35.44 22.176C35.7493 21.7067 36.1813 21.344 36.736 21.088C37.3013 20.832 37.9467 20.704 38.672 20.704C39.7173 20.704 40.5707 20.9653 41.232 21.488C41.904 22.0107 42.2827 22.704 42.368 23.568H40.768C40.7147 23.1413 40.4907 22.768 40.096 22.448C39.7013 22.1173 39.1787 21.952 38.528 21.952C37.92 21.952 37.424 22.112 37.04 22.432C36.656 22.7413 36.464 23.1787 36.464 23.744C36.464 24.1493 36.576 24.48 36.8 24.736C37.0347 24.992 37.3173 25.1893 37.648 25.328C37.9893 25.456 38.464 25.6053 39.072 25.776C39.808 25.9787 40.4 26.1813 40.848 26.384C41.296 26.576 41.68 26.88 42 27.296C42.32 27.7013 42.48 28.256 42.48 28.96C42.48 29.504 42.336 30.016 42.048 30.496C41.76 30.976 41.3333 31.3653 40.768 31.664C40.2027 31.9627 39.536 32.112 38.768 32.112ZM52.6226 27.28C52.6226 27.5573 52.6066 27.8507 52.5746 28.16H45.5666C45.62 29.024 45.9133 29.7013 46.4466 30.192C46.9906 30.672 47.6466 30.912 48.4146 30.912C49.044 30.912 49.5666 30.768 49.9826 30.48C50.4093 30.1813 50.708 29.7867 50.8786 29.296H52.4466C52.212 30.1387 51.7426 30.8267 51.0386 31.36C50.3346 31.8827 49.46 32.144 48.4146 32.144C47.5826 32.144 46.836 31.9573 46.1746 31.584C45.524 31.2107 45.012 30.6827 44.6386 30C44.2653 29.3067 44.0786 28.5067 44.0786 27.6C44.0786 26.6933 44.26 25.8987 44.6226 25.216C44.9853 24.5333 45.492 24.0107 46.1426 23.648C46.804 23.2747 47.5613 23.088 48.4146 23.088C49.2466 23.088 49.9826 23.2693 50.6226 23.632C51.2626 23.9947 51.7533 24.496 52.0946 25.136C52.4466 25.7653 52.6226 26.48 52.6226 27.28ZM51.1186 26.976C51.1186 26.4213 50.996 25.9467 50.7506 25.552C50.5053 25.1467 50.1693 24.8427 49.7426 24.64C49.3266 24.4267 48.8626 24.32 48.3506 24.32C47.6146 24.32 46.9853 24.5547 46.4626 25.024C45.9506 25.4933 45.6573 26.144 45.5826 26.976H51.1186ZM54.0005 27.6C54.0005 26.6933 54.1818 25.904 54.5445 25.232C54.9072 24.5493 55.4085 24.0213 56.0485 23.648C56.6992 23.2747 57.4405 23.088 58.2725 23.088C59.3498 23.088 60.2352 23.3493 60.9285 23.872C61.6325 24.3947 62.0965 25.12 62.3205 26.048H60.7525C60.6032 25.5147 60.3098 25.0933 59.8725 24.784C59.4458 24.4747 58.9125 24.32 58.2725 24.32C57.4405 24.32 56.7685 24.608 56.2565 25.184C55.7445 25.7493 55.4885 26.5547 55.4885 27.6C55.4885 28.656 55.7445 29.472 56.2565 30.048C56.7685 30.624 57.4405 30.912 58.2725 30.912C58.9125 30.912 59.4458 30.7627 59.8725 30.464C60.2992 30.1653 60.5925 29.7387 60.7525 29.184H62.3205C62.0858 30.08 61.6165 30.8 60.9125 31.344C60.2085 31.8773 59.3285 32.144 58.2725 32.144C57.4405 32.144 56.6992 31.9573 56.0485 31.584C55.4085 31.2107 54.9072 30.6827 54.5445 30C54.1818 29.3173 54.0005 28.5173 54.0005 27.6ZM68.0873 32.144C67.2659 32.144 66.5193 31.9573 65.8473 31.584C65.1859 31.2107 64.6633 30.6827 64.2793 30C63.9059 29.3067 63.7193 28.5067 63.7193 27.6C63.7193 26.704 63.9113 25.9147 64.2953 25.232C64.6899 24.5387 65.2233 24.0107 65.8953 23.648C66.5673 23.2747 67.3193 23.088 68.1513 23.088C68.9833 23.088 69.7353 23.2747 70.4073 23.648C71.0793 24.0107 71.6073 24.5333 71.9913 25.216C72.3859 25.8987 72.5833 26.6933 72.5833 27.6C72.5833 28.5067 72.3806 29.3067 71.9753 30C71.5806 30.6827 71.0419 31.2107 70.3593 31.584C69.6766 31.9573 68.9193 32.144 68.0873 32.144ZM68.0873 30.864C68.6099 30.864 69.1006 30.7413 69.5593 30.496C70.0179 30.2507 70.3859 29.8827 70.6633 29.392C70.9513 28.9013 71.0953 28.304 71.0953 27.6C71.0953 26.896 70.9566 26.2987 70.6793 25.808C70.4019 25.3173 70.0393 24.9547 69.5913 24.72C69.1433 24.4747 68.6579 24.352 68.1353 24.352C67.6019 24.352 67.1113 24.4747 66.6633 24.72C66.2259 24.9547 65.8739 25.3173 65.6073 25.808C65.3406 26.2987 65.2073 26.896 65.2073 27.6C65.2073 28.3147 65.3353 28.9173 65.5913 29.408C65.8579 29.8987 66.2099 30.2667 66.6473 30.512C67.0846 30.7467 67.5646 30.864 68.0873 30.864ZM78.7696 23.072C79.8363 23.072 80.7003 23.3973 81.3616 24.048C82.023 24.688 82.3536 25.616 82.3536 26.832V32H80.9136V27.04C80.9136 26.1653 80.695 25.4987 80.2576 25.04C79.8203 24.5707 79.223 24.336 78.4656 24.336C77.6976 24.336 77.0843 24.576 76.6256 25.056C76.1776 25.536 75.9536 26.2347 75.9536 27.152V32H74.4976V23.232H75.9536V24.48C76.2416 24.032 76.631 23.6853 77.1216 23.44C77.623 23.1947 78.1723 23.072 78.7696 23.072ZM84.188 27.584C84.188 26.688 84.3693 25.904 84.732 25.232C85.0947 24.5493 85.5907 24.0213 86.22 23.648C86.86 23.2747 87.5747 23.088 88.364 23.088C89.0467 23.088 89.6813 23.248 90.268 23.568C90.8547 23.8773 91.3027 24.288 91.612 24.8V20.16H93.084V32H91.612V30.352C91.324 30.8747 90.8973 31.3067 90.332 31.648C89.7667 31.9787 89.1053 32.144 88.348 32.144C87.5693 32.144 86.86 31.952 86.22 31.568C85.5907 31.184 85.0947 30.6453 84.732 29.952C84.3693 29.2587 84.188 28.4693 84.188 27.584ZM91.612 27.6C91.612 26.9387 91.4787 26.3627 91.212 25.872C90.9453 25.3813 90.5827 25.008 90.124 24.752C89.676 24.4853 89.18 24.352 88.636 24.352C88.092 24.352 87.596 24.48 87.148 24.736C86.7 24.992 86.3427 25.3653 86.076 25.856C85.8093 26.3467 85.676 26.9227 85.676 27.584C85.676 28.256 85.8093 28.8427 86.076 29.344C86.3427 29.8347 86.7 30.2133 87.148 30.48C87.596 30.736 88.092 30.864 88.636 30.864C89.18 30.864 89.676 30.736 90.124 30.48C90.5827 30.2133 90.9453 29.8347 91.212 29.344C91.4787 28.8427 91.612 28.2613 91.612 27.6ZM98.6485 32.144C97.9765 32.144 97.3738 32.032 96.8405 31.808C96.3072 31.5733 95.8858 31.2533 95.5765 30.848C95.2672 30.432 95.0965 29.9573 95.0645 29.424H96.5685C96.6112 29.8613 96.8138 30.2187 97.1765 30.496C97.5498 30.7733 98.0352 30.912 98.6325 30.912C99.1872 30.912 99.6245 30.7893 99.9445 30.544C100.265 30.2987 100.425 29.9893 100.425 29.616C100.425 29.232 100.254 28.9493 99.9125 28.768C99.5712 28.576 99.0432 28.3893 98.3285 28.208C97.6778 28.0373 97.1445 27.8667 96.7285 27.696C96.3232 27.5147 95.9712 27.2533 95.6725 26.912C95.3845 26.56 95.2405 26.1013 95.2405 25.536C95.2405 25.088 95.3738 24.6773 95.6405 24.304C95.9072 23.9307 96.2858 23.6373 96.7765 23.424C97.2672 23.2 97.8272 23.088 98.4565 23.088C99.4272 23.088 100.211 23.3333 100.809 23.824C101.406 24.3147 101.726 24.9867 101.769 25.84H100.313C100.281 25.3813 100.094 25.0133 99.7525 24.736C99.4218 24.4587 98.9738 24.32 98.4085 24.32C97.8858 24.32 97.4698 24.432 97.1605 24.656C96.8512 24.88 96.6965 25.1733 96.6965 25.536C96.6965 25.824 96.7872 26.064 96.9685 26.256C97.1605 26.4373 97.3952 26.5867 97.6725 26.704C97.9605 26.8107 98.3552 26.9333 98.8565 27.072C99.4858 27.2427 99.9978 27.4133 100.393 27.584C100.787 27.744 101.123 27.9893 101.401 28.32C101.689 28.6507 101.838 29.0827 101.849 29.616C101.849 30.096 101.715 30.528 101.449 30.912C101.182 31.296 100.803 31.6 100.313 31.824C99.8325 32.0373 99.2778 32.144 98.6485 32.144Z" fill="white"/>
</svg>
