<svg width="132" height="54" viewBox="0 0 132 54" fill="none" xmlns="http://www.w3.org/2000/svg">
<path d="M0 54C6.67796 42.5627 14.415 41.5565 29.0947 41.5565C43.7745 41.5565 61.0136 41.1876 84.8718 41.5565C110.554 41.959 130.382 28.7441 132 -3.49618e-06C125.322 11.4373 116.644 13.5168 101.964 13.5168C87.2841 13.5168 78.4587 13.8857 54.6004 13.5168C28.9182 13.1143 8.88433 25.9938 0 54Z" fill="#DF2224"/>
<path d="M56.824 20.848V32H55.368V26.944H49.688V32H48.232V20.848H49.688V25.744H55.368V20.848H56.824ZM63.1341 32.144C62.3128 32.144 61.5661 31.9573 60.8941 31.584C60.2328 31.2107 59.7101 30.6827 59.3261 30C58.9528 29.3067 58.7661 28.5067 58.7661 27.6C58.7661 26.704 58.9581 25.9147 59.3421 25.232C59.7368 24.5387 60.2701 24.0107 60.9421 23.648C61.6141 23.2747 62.3661 23.088 63.1981 23.088C64.0301 23.088 64.7821 23.2747 65.4541 23.648C66.1261 24.0107 66.6541 24.5333 67.0381 25.216C67.4328 25.8987 67.6301 26.6933 67.6301 27.6C67.6301 28.5067 67.4275 29.3067 67.0221 30C66.6275 30.6827 66.0888 31.2107 65.4061 31.584C64.7235 31.9573 63.9661 32.144 63.1341 32.144ZM63.1341 30.864C63.6568 30.864 64.1475 30.7413 64.6061 30.496C65.0648 30.2507 65.4328 29.8827 65.7101 29.392C65.9981 28.9013 66.1421 28.304 66.1421 27.6C66.1421 26.896 66.0035 26.2987 65.7261 25.808C65.4488 25.3173 65.0861 24.9547 64.6381 24.72C64.1901 24.4747 63.7048 24.352 63.1821 24.352C62.6488 24.352 62.1581 24.4747 61.7101 24.72C61.2728 24.9547 60.9208 25.3173 60.6541 25.808C60.3875 26.2987 60.2541 26.896 60.2541 27.6C60.2541 28.3147 60.3821 28.9173 60.6381 29.408C60.9048 29.8987 61.2568 30.2667 61.6941 30.512C62.1315 30.7467 62.6115 30.864 63.1341 30.864ZM77.3205 23.232V32H75.8645V30.704C75.5872 31.152 75.1978 31.504 74.6965 31.76C74.2058 32.0053 73.6618 32.128 73.0645 32.128C72.3818 32.128 71.7685 31.9893 71.2245 31.712C70.6805 31.424 70.2485 30.9973 69.9285 30.432C69.6192 29.8667 69.4645 29.1787 69.4645 28.368V23.232H70.9045V28.176C70.9045 29.04 71.1232 29.7067 71.5605 30.176C71.9978 30.6347 72.5952 30.864 73.3525 30.864C74.1312 30.864 74.7445 30.624 75.1925 30.144C75.6405 29.664 75.8645 28.9653 75.8645 28.048V23.232H77.3205ZM81.2349 24.656C81.4909 24.1547 81.8535 23.7653 82.3229 23.488C82.8029 23.2107 83.3842 23.072 84.0669 23.072V24.576H83.6829C82.0509 24.576 81.2349 25.4613 81.2349 27.232V32H79.7789V23.232H81.2349V24.656ZM88.8516 32.144C88.1796 32.144 87.577 32.032 87.0436 31.808C86.5103 31.5733 86.089 31.2533 85.7796 30.848C85.4703 30.432 85.2996 29.9573 85.2676 29.424H86.7716C86.8143 29.8613 87.017 30.2187 87.3796 30.496C87.753 30.7733 88.2383 30.912 88.8356 30.912C89.3903 30.912 89.8276 30.7893 90.1476 30.544C90.4676 30.2987 90.6276 29.9893 90.6276 29.616C90.6276 29.232 90.457 28.9493 90.1156 28.768C89.7743 28.576 89.2463 28.3893 88.5316 28.208C87.881 28.0373 87.3476 27.8667 86.9316 27.696C86.5263 27.5147 86.1743 27.2533 85.8756 26.912C85.5876 26.56 85.4436 26.1013 85.4436 25.536C85.4436 25.088 85.577 24.6773 85.8436 24.304C86.1103 23.9307 86.489 23.6373 86.9796 23.424C87.4703 23.2 88.0303 23.088 88.6596 23.088C89.6303 23.088 90.4143 23.3333 91.0116 23.824C91.609 24.3147 91.929 24.9867 91.9716 25.84H90.5156C90.4836 25.3813 90.297 25.0133 89.9556 24.736C89.625 24.4587 89.177 24.32 88.6116 24.32C88.089 24.32 87.673 24.432 87.3636 24.656C87.0543 24.88 86.8996 25.1733 86.8996 25.536C86.8996 25.824 86.9903 26.064 87.1716 26.256C87.3636 26.4373 87.5983 26.5867 87.8756 26.704C88.1636 26.8107 88.5583 26.9333 89.0596 27.072C89.689 27.2427 90.201 27.4133 90.5956 27.584C90.9903 27.744 91.3263 27.9893 91.6036 28.32C91.8916 28.6507 92.041 29.0827 92.0516 29.616C92.0516 30.096 91.9183 30.528 91.6516 30.912C91.385 31.296 91.0063 31.6 90.5156 31.824C90.0356 32.0373 89.481 32.144 88.8516 32.144Z" fill="white"/>
</svg>
