<svg width="64" height="40" viewBox="0 0 64 40" fill="none" xmlns="http://www.w3.org/2000/svg">
<path d="M0 40C3.2378 31.528 6.98908 30.7826 14.1065 30.7826C21.224 30.7826 29.5823 30.5093 41.15 30.7826C53.602 31.0807 63.2155 21.2919 64 -2.79753e-06C60.7622 8.47205 56.5545 10.0124 49.437 10.0124C42.3196 10.0124 38.0406 10.2857 26.4729 10.0124C14.0209 9.7143 4.30755 19.2547 0 40Z" fill="#DF2224"/>
<path d="M31.408 15.696V24H30.316V17.808L27.556 24H26.788L24.016 17.796V24H22.924V15.696H24.1L27.172 22.56L30.244 15.696H31.408ZM41.7439 15.696V24H40.6519V17.808L37.8919 24H37.1239L34.3519 17.796V24H33.2599V15.696H34.4359L37.5079 22.56L40.5799 15.696H41.7439Z" fill="white"/>
</svg>
