<svg width="64" height="40" viewBox="0 0 64 40" fill="none" xmlns="http://www.w3.org/2000/svg">
<path d="M0 40C3.2378 31.528 6.98908 30.7826 14.1065 30.7826C21.224 30.7826 29.5823 30.5093 41.15 30.7826C53.602 31.0807 63.2155 21.2919 64 -2.79753e-06C60.7622 8.47205 56.5545 10.0124 49.437 10.0124C42.3196 10.0124 38.0406 10.2857 26.4729 10.0124C14.0209 9.7143 4.30755 19.2547 0 40Z" fill="#DF2224"/>
<path d="M28.576 24.084C28.024 24.084 27.528 23.988 27.088 23.796C26.656 23.596 26.316 23.324 26.068 22.98C25.82 22.628 25.692 22.224 25.684 21.768H26.848C26.888 22.16 27.048 22.492 27.328 22.764C27.616 23.028 28.032 23.16 28.576 23.16C29.096 23.16 29.504 23.032 29.8 22.776C30.104 22.512 30.256 22.176 30.256 21.768C30.256 21.448 30.168 21.188 29.992 20.988C29.816 20.788 29.596 20.636 29.332 20.532C29.068 20.428 28.712 20.316 28.264 20.196C27.712 20.052 27.268 19.908 26.932 19.764C26.604 19.62 26.32 19.396 26.08 19.092C25.848 18.78 25.732 18.364 25.732 17.844C25.732 17.388 25.848 16.984 26.08 16.632C26.312 16.28 26.636 16.008 27.052 15.816C27.476 15.624 27.96 15.528 28.504 15.528C29.288 15.528 29.928 15.724 30.424 16.116C30.928 16.508 31.212 17.028 31.276 17.676H30.076C30.036 17.356 29.868 17.076 29.572 16.836C29.276 16.588 28.884 16.464 28.396 16.464C27.94 16.464 27.568 16.584 27.28 16.824C26.992 17.056 26.848 17.384 26.848 17.808C26.848 18.112 26.932 18.36 27.1 18.552C27.276 18.744 27.488 18.892 27.736 18.996C27.992 19.092 28.348 19.204 28.804 19.332C29.356 19.484 29.8 19.636 30.136 19.788C30.472 19.932 30.76 20.16 31 20.472C31.24 20.776 31.36 21.192 31.36 21.72C31.36 22.128 31.252 22.512 31.036 22.872C30.82 23.232 30.5 23.524 30.076 23.748C29.652 23.972 29.152 24.084 28.576 24.084ZM35.619 24.084C35.067 24.084 34.571 23.988 34.131 23.796C33.699 23.596 33.359 23.324 33.111 22.98C32.863 22.628 32.735 22.224 32.727 21.768H33.891C33.931 22.16 34.091 22.492 34.371 22.764C34.659 23.028 35.075 23.16 35.619 23.16C36.139 23.16 36.547 23.032 36.843 22.776C37.147 22.512 37.299 22.176 37.299 21.768C37.299 21.448 37.211 21.188 37.035 20.988C36.859 20.788 36.639 20.636 36.375 20.532C36.111 20.428 35.755 20.316 35.307 20.196C34.755 20.052 34.311 19.908 33.975 19.764C33.647 19.62 33.363 19.396 33.123 19.092C32.891 18.78 32.775 18.364 32.775 17.844C32.775 17.388 32.891 16.984 33.123 16.632C33.355 16.28 33.679 16.008 34.095 15.816C34.519 15.624 35.003 15.528 35.547 15.528C36.331 15.528 36.971 15.724 37.467 16.116C37.971 16.508 38.255 17.028 38.319 17.676H37.119C37.079 17.356 36.911 17.076 36.615 16.836C36.319 16.588 35.927 16.464 35.439 16.464C34.983 16.464 34.611 16.584 34.323 16.824C34.035 17.056 33.891 17.384 33.891 17.808C33.891 18.112 33.975 18.36 34.143 18.552C34.319 18.744 34.531 18.892 34.779 18.996C35.035 19.092 35.391 19.204 35.847 19.332C36.399 19.484 36.843 19.636 37.179 19.788C37.515 19.932 37.803 20.16 38.043 20.472C38.283 20.776 38.403 21.192 38.403 21.72C38.403 22.128 38.295 22.512 38.079 22.872C37.863 23.232 37.543 23.524 37.119 23.748C36.695 23.972 36.195 24.084 35.619 24.084Z" fill="white"/>
</svg>
