<svg width="182" height="146" viewBox="0 0 182 146" fill="none" xmlns="http://www.w3.org/2000/svg">
<g filter="url(#filter0_i_1_215)">
<path fill-rule="evenodd" clip-rule="evenodd" d="M0.734663 142.194C44.8386 129.73 8.64004 97.0991 24.0319 76.7561C42.7292 52.0446 190.194 20.8444 180.573 -20.01C151.609 -85.064 64.5303 -45.6866 42.6585 -69.179C21.4548 -91.954 -15.7339 -127.662 -44.6046 -139.301C-72.2392 -150.441 -131.42 -150.161 -140.66 -96.5344C-146.554 -56.1975 -128.2 -46.348 -141.303 -25.736C-155.177 -3.91069 -176.987 14.184 -178.869 39.9658C-180.909 67.9064 -172.847 98.8945 -151.745 117.32C-131.206 135.253 -100.223 127.752 -73.3001 132.144C-48.1044 136.254 -22.5346 152.711 0.734663 142.194Z" fill="#162C4E"/>
</g>
<defs>
<filter id="filter0_i_1_215" x="-179.175" y="-145.12" width="360.198" height="294.77" filterUnits="userSpaceOnUse" color-interpolation-filters="sRGB">
<feFlood flood-opacity="0" result="BackgroundImageFix"/>
<feBlend mode="normal" in="SourceGraphic" in2="BackgroundImageFix" result="shape"/>
<feColorMatrix in="SourceAlpha" type="matrix" values="0 0 0 0 0 0 0 0 0 0 0 0 0 0 0 0 0 0 127 0" result="hardAlpha"/>
<feOffset dy="4"/>
<feGaussianBlur stdDeviation="15"/>
<feComposite in2="hardAlpha" operator="arithmetic" k2="-1" k3="1"/>
<feColorMatrix type="matrix" values="0 0 0 0 0 0 0 0 0 0 0 0 0 0 0 0 0 0 1 0"/>
<feBlend mode="normal" in2="shape" result="effect1_innerShadow_1_215"/>
</filter>
</defs>
</svg>
