<svg width="470" height="419" viewBox="0 0 470 419" fill="none" xmlns="http://www.w3.org/2000/svg">
<g filter="url(#filter0_i_1_28)">
<path fill-rule="evenodd" clip-rule="evenodd" d="M43.4328 410.107C147.67 380.657 62.1031 303.502 98.4759 255.414C142.66 197 491.186 123.286 468.434 26.699C399.956 -127.104 194.156 -34.0396 142.454 -89.585C92.3313 -143.434 4.42358 -227.864 -63.8169 -255.388C-129.136 -281.733 -269.011 -281.089 -290.833 -154.314C-304.75 -58.9551 -261.367 -35.6642 -292.329 13.0606C-325.114 64.6532 -376.659 107.424 -381.099 168.374C-385.91 234.428 -366.845 307.689 -316.965 351.255C-268.416 393.657 -195.189 375.935 -131.554 386.326C-72.0016 396.051 -11.5614 434.965 43.4328 410.107Z" fill="#162C4E"/>
</g>
<defs>
<filter id="filter0_i_1_28" x="-381.819" y="-269.155" width="851.319" height="691.427" filterUnits="userSpaceOnUse" color-interpolation-filters="sRGB">
<feFlood flood-opacity="0" result="BackgroundImageFix"/>
<feBlend mode="normal" in="SourceGraphic" in2="BackgroundImageFix" result="shape"/>
<feColorMatrix in="SourceAlpha" type="matrix" values="0 0 0 0 0 0 0 0 0 0 0 0 0 0 0 0 0 0 127 0" result="hardAlpha"/>
<feOffset dy="4"/>
<feGaussianBlur stdDeviation="15"/>
<feComposite in2="hardAlpha" operator="arithmetic" k2="-1" k3="1"/>
<feColorMatrix type="matrix" values="0 0 0 0 0 0 0 0 0 0 0 0 0 0 0 0 0 0 1 0"/>
<feBlend mode="normal" in2="shape" result="effect1_innerShadow_1_28"/>
</filter>
</defs>
</svg>
