<svg width="183" height="215" viewBox="0 0 183 215" fill="none" xmlns="http://www.w3.org/2000/svg">
<g filter="url(#filter0_i_1_217)">
<path fill-rule="evenodd" clip-rule="evenodd" d="M525.073 -5.30194C543.523 -83.5491 462.618 -55.8287 444.518 -96.7569C422.531 -146.474 500.288 -399.181 429.408 -419.22C304.92 -430.206 291.154 -263.137 236.476 -249.604C183.468 -236.484 96.9987 -209.866 54.5458 -175.505C13.9107 -142.615 -36.0761 -51.6226 38.3322 8.21729C95.2009 51.6077 125.949 31.8502 146.412 69.4971C168.079 109.36 177.261 158.217 215.215 183.059C256.348 209.982 310.762 224.009 357.009 207.341C402.021 191.118 416.907 137.218 446.582 99.6716C474.353 64.5345 521.387 39.3385 525.073 -5.30194Z" fill="#162C4E"/>
</g>
<defs>
<filter id="filter0_i_1_217" x="0.0489502" y="-419.739" width="527.741" height="638.275" filterUnits="userSpaceOnUse" color-interpolation-filters="sRGB">
<feFlood flood-opacity="0" result="BackgroundImageFix"/>
<feBlend mode="normal" in="SourceGraphic" in2="BackgroundImageFix" result="shape"/>
<feColorMatrix in="SourceAlpha" type="matrix" values="0 0 0 0 0 0 0 0 0 0 0 0 0 0 0 0 0 0 127 0" result="hardAlpha"/>
<feOffset dy="4"/>
<feGaussianBlur stdDeviation="15"/>
<feComposite in2="hardAlpha" operator="arithmetic" k2="-1" k3="1"/>
<feColorMatrix type="matrix" values="0 0 0 0 0 0 0 0 0 0 0 0 0 0 0 0 0 0 1 0"/>
<feBlend mode="normal" in2="shape" result="effect1_innerShadow_1_217"/>
</filter>
</defs>
</svg>
